<svg id="svg" xmlns="http://www.w3.org/2000/svg" xmlns:xlink="http://www.w3.org/1999/xlink" width="400" height="400" viewBox="0, 0, 400,400"><g id="svgg"><path id="path0" d="M78.906 184.375 L 78.906 284.375 100.000 284.375 L 121.094 284.375 121.094 300.391 L 121.094 316.406 221.094 316.406 L 321.094 316.406 321.094 216.406 L 321.094 116.406 300.000 116.406 L 278.906 116.406 278.906 100.391 L 278.906 84.375 178.906 84.375 L 78.906 84.375 78.906 184.375 M273.438 103.125 L 273.438 116.406 197.266 116.406 L 121.094 116.406 121.094 197.656 L 121.094 278.906 102.734 278.906 L 84.375 278.906 84.375 184.375 L 84.375 89.844 178.906 89.844 L 273.438 89.844 273.438 103.125 M273.438 200.391 L 273.438 278.906 200.000 278.906 L 126.563 278.906 126.563 200.391 L 126.563 121.875 200.000 121.875 L 273.438 121.875 273.438 200.391 M315.625 216.406 L 315.625 310.938 221.094 310.938 L 126.563 310.938 126.563 297.656 L 126.563 284.375 202.734 284.375 L 278.906 284.375 278.906 203.125 L 278.906 121.875 297.266 121.875 L 315.625 121.875 315.625 216.406 " stroke="none" fill="#000000" fill-rule="evenodd"></path></g></svg>